<svg width="448" height="33" viewBox="0 0 448 33" fill="none" xmlns="http://www.w3.org/2000/svg">
<g clip-path="url(#clip0_2_290)">
<path d="M65.6592 31C73.3912 31 79.6592 24.732 79.6592 17C79.6592 9.26801 73.3912 3 65.6592 3C57.9272 3 51.6592 9.26801 51.6592 17C51.6592 24.732 57.9272 31 65.6592 31Z" fill="white"/>
<path d="M66.1863 1C57.6106 1 50.6592 8.16334 50.6592 17C50.6592 25.8366 57.6106 33 66.1863 33C74.7621 33 81.7135 25.8366 81.7135 17C81.7135 8.16334 74.7621 1 66.1863 1ZM70.9963 17.148C70.9963 14.4927 68.9072 12.3397 66.3299 12.3397C63.7531 12.3397 61.664 14.4923 61.664 17.148C61.664 19.8033 63.7531 21.9559 66.3299 21.9559V24.7036C62.2806 24.7036 58.9975 21.321 58.9975 17.148C58.9975 12.9751 62.2802 9.5924 66.3299 9.5924C70.3797 9.5924 73.6625 12.9751 73.6625 17.148H70.9963ZM75.4955 17.148C75.4955 11.9321 71.3922 7.7036 66.3299 7.7036C61.2682 7.7036 57.1648 11.9321 57.1648 17.148C57.1648 22.3638 61.2682 26.592 66.3299 26.592V29.7404C59.581 29.7404 54.1094 24.1024 54.1094 17.148C54.1094 10.1933 59.581 4.5556 66.3299 4.5556C73.0793 4.5556 78.5506 10.1933 78.5506 17.148H75.4955Z" fill="#F43E37"/>
</g>
<g clip-path="url(#clip1_2_290)">
<path fill-rule="evenodd" clip-rule="evenodd" d="M179.367 28.7357C179.056 29.5258 178.338 30.6383 177.32 31.4219C176.733 31.8745 176.031 32.3072 175.068 32.5927C174.04 32.8971 172.775 33 171.2 33H156.8C155.225 33 153.96 32.8971 152.933 32.5927C151.969 32.3072 151.267 31.8745 150.68 31.4219C149.662 30.6382 148.944 29.5258 148.633 28.7357C148.006 27.1438 148 25.3376 148 24.2V9.79997C148 8.66243 148.006 6.85622 148.633 5.26429C148.944 4.47418 149.662 3.36169 150.68 2.57806C151.267 2.12546 151.969 1.69283 152.933 1.40733C153.96 1.10288 155.225 1 156.8 1H171.2C172.775 1 174.04 1.10288 175.068 1.40733C176.031 1.69283 176.733 2.12559 177.321 2.57806C178.338 3.36182 179.056 4.47418 179.367 5.26429C179.994 6.85622 180 8.66243 180 9.79997V24.2C180 25.3375 179.994 27.1437 179.367 28.7357Z" fill="url(#paint0_linear_2_290)"/>
<path d="M166.321 19.3932C165.841 18.8866 164.997 18.5618 164.002 18.5618C163.006 18.5618 162.163 18.8866 161.682 19.3932C161.432 19.6576 161.299 19.9286 161.258 20.3147C161.177 21.0624 161.222 21.7061 161.31 22.7353C161.393 23.716 161.552 25.0239 161.758 26.3559C161.906 27.3038 162.025 27.8154 162.134 28.1818C162.31 28.7755 162.97 29.2948 164.002 29.2948C165.033 29.2948 165.693 28.7754 165.869 28.1818C165.978 27.8154 166.098 27.3038 166.245 26.3559C166.452 25.0239 166.61 23.716 166.694 22.7353C166.781 21.706 166.827 21.0622 166.746 20.3147C166.704 19.9288 166.571 19.6576 166.321 19.3932ZM161.385 14.8821C161.385 16.3284 162.558 17.5009 164.004 17.5009C165.451 17.5009 166.623 16.3284 166.623 14.8821C166.623 13.4357 165.451 12.2632 164.004 12.2632C162.558 12.2632 161.385 13.4357 161.385 14.8821ZM163.972 4.54692C157.847 4.56435 152.828 9.53329 152.752 15.6579C152.691 20.6192 155.858 24.8631 160.28 26.4187C160.387 26.4564 160.496 26.3673 160.479 26.2548C160.421 25.8695 160.367 25.4824 160.317 25.1018C160.299 24.9673 160.213 24.8513 160.089 24.797C156.593 23.2699 154.153 19.7643 154.192 15.7036C154.243 10.3747 158.595 6.03024 163.924 5.98713C169.371 5.94313 173.817 10.3621 173.817 15.7999C173.817 19.8199 171.387 23.2825 167.919 24.7974C167.795 24.8517 167.71 24.968 167.692 25.1025C167.642 25.4829 167.587 25.8699 167.529 26.2548C167.512 26.3673 167.621 26.4564 167.729 26.4188C172.109 24.8781 175.257 20.7002 175.257 15.8C175.257 9.58403 170.191 4.52912 163.972 4.54692ZM163.768 9.70942C167.24 9.575 170.108 12.3606 170.108 15.8033C170.108 17.5542 169.366 19.135 168.181 20.2482C168.08 20.3426 168.026 20.4766 168.034 20.6143C168.057 21.0331 168.049 21.4401 168.021 21.8997C168.013 22.0221 168.151 22.1003 168.252 22.0313C170.24 20.6726 171.548 18.388 171.548 15.8033C171.548 11.5477 168.003 8.10427 163.711 8.27061C159.723 8.42525 156.523 11.7138 156.471 15.7052C156.438 18.3302 157.754 20.6558 159.767 22.0315C159.869 22.1006 160.005 22.0223 159.998 21.8999C159.97 21.4401 159.961 21.0331 159.985 20.6143C159.993 20.4767 159.939 20.3427 159.838 20.2485C158.616 19.1006 157.865 17.4557 157.913 15.6397C157.997 12.4439 160.574 9.83316 163.768 9.70942Z" fill="white"/>
</g>
<g clip-path="url(#clip2_2_290)">
<path d="M16.9994 1.05273C8.19005 1.05273 1.04834 8.19426 1.04834 17.0036C1.04834 25.8133 8.19005 32.9543 16.9994 32.9543C25.8097 32.9543 32.9506 25.8133 32.9506 17.0036C32.9506 8.19483 25.8097 1.0535 16.9992 1.0535L16.9994 1.05273ZM24.3144 24.0584C24.0287 24.527 23.4154 24.6756 22.9468 24.388C19.2017 22.1004 14.487 21.5823 8.93463 22.8508C8.39958 22.9727 7.86624 22.6375 7.74434 22.1023C7.62186 21.567 7.95577 21.0337 8.49215 20.9118C14.5683 19.523 19.7803 20.1213 23.9849 22.6908C24.4535 22.9784 24.6021 23.5899 24.3144 24.0584ZM26.2668 19.7146C25.9068 20.3004 25.1411 20.4851 24.5563 20.1251C20.2687 17.4891 13.7329 16.7259 8.66148 18.2653C8.00377 18.464 7.3091 18.0933 7.10948 17.4367C6.91139 16.779 7.28224 16.0857 7.93882 15.8857C13.7318 14.128 20.9335 14.9794 25.8573 18.0051C26.4421 18.3651 26.6268 19.1308 26.2668 19.7148V19.7146ZM26.4344 15.192C21.2935 12.1384 12.8116 11.8577 7.9032 13.3474C7.11501 13.5864 6.28148 13.1415 6.04263 12.3533C5.80377 11.5647 6.24834 10.7318 7.0371 10.4922C12.6716 8.78169 22.0382 9.11216 27.9571 12.6259C28.6676 13.0466 28.9 13.9623 28.479 14.6703C28.06 15.3792 27.1419 15.6129 26.4352 15.192H26.4344Z" fill="#1ED760"/>
</g>
<g clip-path="url(#clip3_2_290)">
<path d="M212.938 31C220.704 31 227 24.704 227 16.9375C227 9.171 220.704 2.875 212.938 2.875C205.171 2.875 198.875 9.171 198.875 16.9375C198.875 24.704 205.171 31 212.938 31Z" fill="white" stroke="#363F46" stroke-width="2.42578" stroke-linecap="round"/>
<path d="M205.303 10.999C205.303 10.999 203.358 13.1928 203.358 17.0258C203.358 20.8588 205.303 22.9642 205.303 22.9642" fill="white"/>
<path d="M205.303 10.999C205.303 10.999 203.358 13.1928 203.358 17.0258C203.358 20.8588 205.303 22.9642 205.303 22.9642" stroke="#FC7E0F" stroke-width="2.42578" stroke-linecap="round"/>
<path d="M220.796 10.999C220.796 10.999 222.74 13.1928 222.74 17.0258C222.74 20.8588 220.796 22.9642 220.796 22.9642" fill="white"/>
<path d="M220.796 10.999C220.796 10.999 222.74 13.1928 222.74 17.0258C222.74 20.8588 220.796 22.9642 220.796 22.9642" stroke="#FC7E0F" stroke-width="2.42578" stroke-linecap="round"/>
<path d="M217.694 13.5625C217.694 13.5625 219.004 15.1938 218.972 17.0179C218.932 19.2116 217.71 20.417 217.71 20.417" fill="white"/>
<path d="M217.694 13.5625C217.694 13.5625 219.004 15.1938 218.972 17.0179C218.932 19.2116 217.71 20.417 217.71 20.417" stroke="#FC7E0F" stroke-width="2.42578" stroke-linecap="round"/>
<path d="M208.341 13.5625C208.341 13.5625 207.031 15.1938 207.063 17.0179C207.103 19.2116 208.325 20.417 208.325 20.417" fill="white"/>
<path d="M208.341 13.5625C208.341 13.5625 207.031 15.1938 207.063 17.0179C207.103 19.2116 208.325 20.417 208.325 20.417" stroke="#FC7E0F" stroke-width="2.42578" stroke-linecap="round"/>
<path d="M212.936 19.1206C214.141 19.1206 215.119 18.1433 215.119 16.9377C215.119 15.7322 214.141 14.7549 212.936 14.7549C211.73 14.7549 210.753 15.7322 210.753 16.9377C210.753 18.1433 211.73 19.1206 212.936 19.1206Z" fill="#363F46"/>
<path d="M213.305 18.9767L211.756 18.5605L209.178 28.1924L210.726 28.6085L213.305 18.9767Z" fill="#363F46"/>
<path d="M212.705 18.964L214.247 18.5547L216.812 28.1934L215.27 28.6027L212.705 18.964Z" fill="#363F46"/>
<path d="M211.272 24.1618L211.845 23.5752L215.815 27.4429L215.242 28.0296L211.272 24.1618Z" fill="#363F46"/>
<path d="M214.635 24.1825L214.117 23.6572L210.181 27.5659L210.699 28.0912L214.635 24.1825Z" fill="#363F46"/>
</g>
<g clip-path="url(#clip4_2_290)">
<path d="M130.659 17C130.659 25.8889 123.527 33 114.892 33C106.258 33 99.0002 25.8889 99.0002 17C99.0002 8.11112 106.133 1 114.767 1C123.402 1 130.659 8.11112 130.659 17Z" fill="url(#paint1_linear_2_290)"/>
<path d="M103.67 18.0691C103.676 18.0162 103.714 17.979 103.761 17.979C103.806 17.979 103.844 18.0162 103.851 18.0688L104.048 19.3458L103.851 20.6011C103.844 20.6537 103.807 20.6903 103.761 20.6903C103.714 20.6903 103.676 20.6534 103.67 20.6006L103.504 19.3458L103.67 18.0691Z" fill="white"/>
<path d="M104.598 17.189C104.646 17.189 104.685 17.2269 104.693 17.2817L104.946 19.346L104.692 21.3651C104.685 21.4198 104.646 21.4578 104.598 21.4578C104.55 21.4578 104.51 21.4187 104.504 21.3646L104.281 19.346L104.504 17.2817C104.511 17.2281 104.55 17.189 104.598 17.189Z" fill="white"/>
<path d="M108.03 15.5498C108.035 15.4534 108.11 15.3774 108.202 15.3774C108.292 15.3774 108.368 15.4534 108.373 15.5498L108.574 19.3476L108.373 21.8022V21.8015C108.368 21.8977 108.292 21.9736 108.202 21.9736C108.11 21.9736 108.035 21.8979 108.03 21.802L107.853 19.3476L108.03 15.5498Z" fill="white"/>
<path d="M106.252 16.83C106.258 16.7541 106.315 16.6973 106.385 16.6973C106.455 16.6973 106.512 16.7541 106.518 16.8295L106.745 19.3464L106.518 21.781C106.512 21.8564 106.455 21.9133 106.385 21.9133C106.315 21.9133 106.258 21.8564 106.252 21.781L106.052 19.3464L106.252 16.83Z" fill="white"/>
<path d="M110.256 21.7618C110.252 21.8805 110.16 21.9732 110.047 21.9732C109.932 21.9732 109.84 21.8802 109.837 21.7626L109.682 19.3484L109.837 14.2927C109.84 14.174 109.933 14.0811 110.047 14.0811C110.16 14.0811 110.252 14.1738 110.257 14.2924L110.43 19.3487L110.256 21.7618Z" fill="white"/>
<path d="M114.112 21.6943C114.109 21.8544 113.981 21.9847 113.825 21.9847C113.669 21.9847 113.54 21.8544 113.537 21.6957C113.537 21.6957 113.429 19.3521 113.429 19.3484L113.537 13.5109C113.54 13.3505 113.669 13.2202 113.825 13.2202C113.981 13.2202 114.11 13.3508 114.112 13.5107L114.234 19.3503L114.112 21.6943Z" fill="white"/>
<path d="M112.17 21.7238C112.167 21.8647 112.057 21.9752 111.921 21.9752C111.785 21.9752 111.676 21.8647 111.673 21.7253L111.541 19.3493L111.672 14.2561C111.675 14.1152 111.785 14.0049 111.921 14.0049C112.057 14.0049 112.166 14.1152 112.17 14.2561L112.318 19.349L112.17 21.7255V21.7238Z" fill="white"/>
<path d="M107.442 21.8014C107.436 21.8877 107.371 21.9532 107.29 21.9532C107.208 21.9532 107.143 21.8877 107.138 21.8011L106.949 19.3465L107.138 17.0123C107.143 16.9255 107.208 16.8599 107.29 16.8599C107.371 16.8599 107.436 16.925 107.442 17.0112L107.656 19.3465L107.442 21.8014Z" fill="white"/>
<path d="M105.602 21.7063C105.595 21.7716 105.547 21.8188 105.488 21.8188C105.428 21.8188 105.38 21.7713 105.375 21.7059L105.163 19.3461L105.375 16.8969C105.381 16.8317 105.428 16.7842 105.488 16.7842C105.547 16.7842 105.595 16.8315 105.602 16.8969L105.842 19.3461L105.602 21.7063Z" fill="white"/>
<path d="M112.601 14.4426C112.604 14.2903 112.722 14.1714 112.869 14.1714C113.016 14.1714 113.134 14.2903 113.137 14.4421L113.272 19.3499L113.137 21.7111V21.7091C113.134 21.8613 113.016 21.98 112.869 21.98C112.722 21.98 112.604 21.8611 112.601 21.7108L112.481 19.3497L112.601 14.4426Z" fill="white"/>
<path d="M109.311 21.7861C109.307 21.8936 109.223 21.978 109.121 21.978C109.018 21.978 108.934 21.8936 108.93 21.7871L108.764 19.3481L108.93 14.6815C108.934 14.574 109.018 14.4897 109.121 14.4897C109.223 14.4897 109.306 14.5737 109.311 14.6815L109.499 19.3481L109.311 21.7861Z" fill="white"/>
<path d="M111.21 21.7479V21.7476C111.205 21.8765 111.105 21.9778 110.981 21.9778C110.856 21.9778 110.755 21.8761 110.751 21.7477L110.608 19.3486L110.751 14.1222C110.754 13.9922 110.855 13.8906 110.981 13.8906C111.105 13.8906 111.206 13.9924 111.21 14.1222L111.371 19.3489L111.21 21.7466V21.7476C111.21 21.7473 111.21 21.7471 111.21 21.7469V21.7479Z" fill="white"/>
<path d="M122.291 16.5556C122.623 16.4145 122.987 16.3362 123.369 16.3362C124.908 16.3362 126.155 17.6022 126.155 19.1638C126.155 20.7253 124.907 21.9912 123.369 21.9912C123.319 21.9912 115.653 21.9873 115.646 21.9865C115.48 21.9694 115.348 21.8253 115.345 21.6523V12.6792C115.347 12.5143 115.403 12.4293 115.614 12.3467C116.155 12.1344 116.767 12.0088 117.396 12.0088C119.964 12.0088 122.07 14.0076 122.291 16.5556Z" fill="white"/>
<path d="M114.469 12.982C114.471 12.8108 114.609 12.6714 114.776 12.6714C114.943 12.6714 115.08 12.8108 115.083 12.9816L115.219 19.351L115.083 21.6628V21.66C115.08 21.8314 114.943 21.9705 114.776 21.9705C114.609 21.9705 114.471 21.8314 114.469 21.6625L114.343 19.351L114.469 12.982Z" fill="white"/>
</g>
<defs>
<linearGradient id="paint0_linear_2_290" x1="164" y1="1" x2="164" y2="33" gradientUnits="userSpaceOnUse">
<stop stop-color="#F452FF"/>
<stop offset="1" stop-color="#832BC1"/>
</linearGradient>
<linearGradient id="paint1_linear_2_290" x1="114.83" y1="1" x2="114.83" y2="33" gradientUnits="userSpaceOnUse">
<stop stop-color="#FF7602"/>
<stop offset="1" stop-color="#FF3502"/>
</linearGradient>
<clipPath id="clip0_2_290">
<rect width="32" height="32" fill="white" transform="translate(50 1)"/>
</clipPath>
<clipPath id="clip1_2_290">
<rect width="32" height="32" fill="white" transform="translate(148 1)"/>
</clipPath>
<clipPath id="clip2_2_290">
<rect width="32" height="32" fill="white" transform="translate(1 1)"/>
</clipPath>
<clipPath id="clip3_2_290">
<rect width="32" height="32" fill="white" transform="translate(197 1)"/>
</clipPath>
<clipPath id="clip4_2_290">
<rect width="32" height="32" fill="white" transform="translate(99 1)"/>
</clipPath>
</defs>
</svg>
